<?xml version="1.0" encoding="UTF-8"?>
<svg id="Layer_2" data-name="Layer 2" xmlns="http://www.w3.org/2000/svg" viewBox="0 0 530.27 527.07">
  <defs>
    <style>
      .cls-1 {
        fill: #0f9986;
      }

      .cls-2 {
        fill: #d9a92c;
      }
    </style>
  </defs>
  <g id="Layer_1-2" data-name="Layer 1">
    <g>
      <g>
        <g>
          <path class="cls-2" d="M351.53,109.3c.7.7,2.59.65,3.39.07.7-.5.91-1.85,1.01-2.71,1.23-9.77,1.32-20.28,2.12-30.16.8-9.76,1.81-19.52,2.59-29.27,2.77-5.81,10.98-4.52,11.82,1.94-1.38,16.13-2.45,32.29-3.66,48.43-.26,3.43-1.25,7.94-1.25,11.19,0,3.37,4.76,4.25,5.36-.46,1.85-14.66,1.53-30.41,3.35-45.07.32-2.54.48-4.78,3.02-6.09,4.28-2.22,8.76,1.12,9.01,5.67-.62,14.62-3.1,29.29-3.75,43.88-.06,1.41-.24,4.29.27,5.49.63,1.48,4.62,1.35,4.92-.71l3.17-34.49c.54-2.5,3.88-2.71,4.92-.54l15.15,46.73-12.92,39.59c-16.9,8.66-34.18,16.6-51.29,24.86l-37.08-66.01c-2.21-5.22,2.07-10.43,7.64-9.71,3.54.46,4.67,2.91,6.37,5.63,2.99,4.77,5.49,9.93,8.44,14.74l1.99,2.77c1.53-22.86,3.87-45.67,5.79-68.5.68-8.06.65-16.4,1.67-24.41,1.13-8.84,11.32-8.58,12.43-.44-.86,20.54-4.26,41.64-4.98,62.1-.04,1.22-.26,4.72.51,5.48Z"/>
          <path class="cls-1" d="M182.95,125.57l36.8,63.16c3.83,7.87-6.75,14.56-12.11,7.56l-12.23-19.42-7.07,93.71c-1.41,8.04-11.75,6.82-12.41-.79l4.97-65.03c.03-3.22-4.37-4.16-4.9-.73-2.26,18.87-1.87,38.7-4.19,57.48-.3,2.45-.58,4.51-2.75,5.94-4.24,2.78-9.05.1-9.62-4.73.88-19.44,3.73-38.91,4.53-58.34.18-4.45-4.31-4.51-4.96-1.62-1.78,15.16-1.41,31.28-3.33,46.33-.25,1.98-.62,4.32-2.33,5.53-4.15,2.94-9.1.08-9.69-4.71l3.71-47.22c.02-3.79-4.47-4.54-5.48-1.33l-2.85,34.4c-.5,2.09-3.28,2.73-4.47.92l-16.11-46.33,12.51-38.21c14.83-7.47,29.35-15.59,44.17-23.09,1.14-.58,7.27-3.89,7.84-3.48Z"/>
          <path class="cls-2" d="M213.47,130.78c-5.11,5.04-14.43.95-12.49-6.49l10.15-20.07-.61-.61-81.86,42.72c-6.48,2.13-10.84-5.5-6.61-10.45l57.93-30.12c2.87-1.88.73-5.49-2.38-4.46l-50.81,26.6c-6.76,2.21-11.13-6.86-5.19-10.99l50.59-25.97c2.71-1.71,1-5.59-2.04-4.53l-41.69,21.24c-5.38.67-8.46-6.38-4.88-10.28,13.73-8.21,28.74-14.45,42.64-22.34,1.75-2.8-.68-4.91-3.62-4.04l-28.52,14.11c-3.57,1.3-5.15-2.33-2.82-4.89l33.14-37.22c11.14-2.29,22.34-5.8,33.49-7.9,1.51-.28,3.14-.87,4.67-.53l45.23,32.2c.23.29.08.53.01.83-.36,1.46-3.62,6.88-4.59,8.7-9.73,18.25-19.93,36.28-29.75,54.48Z"/>
          <path class="cls-2" d="M250.45,227.77l19.58,13.73,55.29,40.73c4.35,5.52-1.66,13.11-7.96,9.62l-51.04-37.53c-3.84-1.93-5.95,2.35-2.41,4.48l46.31,33.98c3.46,4.84-.13,10.91-6.16,9.88-16.11-10.93-31.61-23.04-47.34-34.6-3.14-1.85-5.54.57-3.62,3.62l38.13,28.09c4.38,5.51-1.68,12.41-7.82,9.06-7.79-5.86-15.47-11.88-23.32-17.65-2.1-1.54-13.53-10.27-14.86-10.42-2.56-.29-3.89,2.56-2.24,4.34l26.86,20.32c1.55,1.41.96,4.25-1.1,4.66-15.85-3.23-31.7-7.08-47.52-10.67-9.04-9.32-17.93-18.78-26.59-28.45l4.05-57.66c4.76-.09,9.54.13,14.3.02,11.84-.27,23.7-.31,35.59-.41,6.63-.06,18.04-1.56,24.22-.25,7.87,1.67,7.38,13.29-.64,14.3-7.24,0-14.51.21-21.73.83Z"/>
          <path class="cls-1" d="M282.81,243.42c-.31-.54,0-1.35.25-1.88,11.71-18.42,20.99-38.96,32.3-57.51,1.93-3.17,3.07-5.46,7.31-5.54,4.95-.09,8.85,4,7.34,9.02-1.73,5.77-7.58,13.34-9.84,19.13-.14.37-.43,1.27.03,1.27,27.94-12.59,55.19-26.61,82.96-39.54,6.91-1.8,11.12,7.32,5.12,11.32l-56.94,27.49c-3.01,1.47-1.49,5.75,1.77,4.67l52.03-24.96c7.01-1.5,10.61,7.83,4.38,11.41-16.21,7.61-32.72,14.81-48.7,22.9-1.01.51-3.33,1.46-3.78,2.43-.83,1.79.62,3.48,2.46,3.33,11.97-4.89,23.45-11.17,35.26-16.52,2.06-.93,6.9-3.54,8.75-3.7,5.11-.45,7.79,6.56,4.39,10.22-12.65,6.96-26.28,12.25-39.22,18.72-1.06.53-3.9,1.73-4.43,2.6-1.4,2.33.61,4.55,3.1,3.94l29.2-13.44c3.68-1.25,5.44,2.15,3.33,4.98l-33.56,35.56-36.24,7.23-1.92-.04-45.33-33.1Z"/>
        </g>
        <path class="cls-1" d="M266.91,56.53c.95-.25,1.86-1.92,1.76-2.9-.08-.85-1.15-1.71-1.83-2.24-7.83-5.97-16.88-11.32-25.02-16.97-8.04-5.58-15.97-11.36-24.02-16.94-3.64-5.31,1.6-11.76,7.61-9.25,13.26,9.29,26.7,18.32,40.06,27.47,2.84,1.94,6.24,5.07,9.05,6.7,2.92,1.69,6.07-1.98,2.29-4.87-11.75-8.96-25.53-16.58-37.3-25.52-2.04-1.55-3.89-2.82-3.75-5.67.23-4.81,5.36-7.02,9.42-4.95,12.34,7.88,23.77,17.38,36.07,25.27,1.19.76,3.59,2.36,4.88,2.52,1.6.2,3.49-3.32,1.85-4.61l-28.24-20.05c-1.9-1.72-.4-4.72,2-4.52l48.02,10.35,27.75,31.04c-.99,18.97-2.8,37.9-4.24,56.84l-75.7-1.06c-5.62-.71-7.98-7.02-4.56-11.48,2.17-2.83,4.87-2.58,8.07-2.68,5.63-.19,11.35.24,16.98.1l3.39-.33c-19.01-12.79-37.56-26.26-56.34-39.39-6.63-4.64-13.86-8.79-20.28-13.69-7.08-5.41-1.74-14.09,5.86-10.97,17.33,11.05,33.88,24.58,51.22,35.47,1.03.65,3.95,2.59,5,2.31Z"/>
      </g>
      <g>
        <g>
          <path class="cls-1" d="M142.92,425.29c3.56.27,7.08-.23,10.04-2.38,5.76-9.34,10.64-20.1,20.11-26.31,3.47-2.27,20.99-10.99,24.18-8.83,2.16,5.13.58,9.72-1.88,14.32-5.93,11.06-17.11,20.39-27.88,26.54-2.14,1.23-4.71,1.64-6.72,2.88-4.7,2.91-8.76,17.58-11.29,23.12-1.69,3.71-4.08,6.96-5.76,10.65-1.49.18-.66-1.64-.44-2.44,2.52-9.29,5.93-18.48,10.05-27.16l-13.09,1.71c-1.16.37-3.64,6.15-4.99,7.82-3.44,4.23-9.04,7.61-14.62,7.39-3.88,11.65-11.82,22.24-23.94,26.07-3.72,1.18-10.37,1.06-12.98,2.22-1.12.5-5.28,5.1-7.76,6.64-7.13,4.44-29.58,11.85-37.33,10.34-1.44-.28,6.05-3.28,6.05-3.28,5.59-1.9,11.2-4.12,16.62-6.51,2.82-1.24,17.34-9.11,16.72-11.86-.6-1.01-1.48-1.81-1.92-2.93-3.88-9.81-4.16-25.31-3.58-35.62.11-2.04-.82-7.73,1.27-8.35,2.73-.81,3.46,1.54,5.18,2.68,2.65,1.76,6.64,3.57,8.77,5.63,7.58,7.31,6.8,18.36,3.97,27.64,8.67.39,16-5.62,21.6-11.61l-5.53-3.26c-11.53-8.69-10.01-19.52-11.27-31.94-.6-5.87-2.39-13.55-2.42-19.2,0-1.26,1.93-11.28,2.43-11.61,2.13-1.43,5.76,5.75,7.22,7.58,7.88,9.91,15.74,17.25,19.43,30.19,1.28,4.5.94,8.75,2.14,13.09,1.43,1.04,10.01-3.45,10.82-5.25.92-2.04.25-5.62.61-8.19,1.49-10.62,6.61-11.83,6.2.2ZM190.94,398.08c-1.67,0-3.37-.18-5.03.17-2.73.58-12.58,4.99-14.93,6.67-5.22,3.72-8.87,10.13-12.05,15.55,9.16-3.46,17.56-8.49,25.55-14.06,2.19-2.99,7.28-4.24,6.47-8.34ZM117.31,439.69c-.93-8.69-7.43-18.33-13.27-24.74-.81-.89-1.2-2-2.73-1.67,1.19,10.16,3.36,25.35,16,26.4ZM78.1,448.49c-.13,3.84,1.35,18.48,7.48,16.74,1.67-.47,2.83-5.21,2.32-6.9-.64-2.12-8.02-11.71-9.8-9.84Z"/>
          <path class="cls-1" d="M378.61,496.51c15.66-1.43,43.16-13.71,53.24-25.99,1.64-1.99,3.67-3.97,3.18-6.82-2.26.8-15,1.64-15.26-.5.85-7.56,7.66-25.83,17.96-20.2,3.12,1.7,4.9,7.8,7.12,7.71,9.52-.39,20.82-7.25,28.98-11.82,3.16,2.37-2.66,5.56-3.21,7.92-.54,2.31,1.93,5.03,4.19,5.52,7.76,1.7,16.3-3.26,22.23-7.85.97-.75,3.52-3.87,4.02-3.99,4.76-1.07-1.65,7.88-2.81,8.79,6.7-1.98,17.13-3.66,22.34-8.47,2.42-2.24,4.11-6.82,6.5-8.7,1.25-.98,2.16-1.64,3.17-.02-4.37,13.12-18.36,21.01-30.8,25.21-6.73,2.27-13,2.62-19.62,4.39-9.05,2.41-16.13,1.19-13.72-9.74.64-2.93-3.06.88-3.62,1.2-3.29,1.93-8.05,4.51-11.46,6.14-2.74,1.31-6.4,1.9-8.28,2.93-1.75.95-5.66,10.11-7.39,12.62-15.43,22.36-47.62,30.52-73.19,25.26-1.84-.38-4.95-1.97-5.99-1.97-1.74,0-9.39,3.94-11.97,4.79-7.13,2.37-18.21,4.84-25.64,4.84-3.67,0-7.04,0-12.4-.88-.08-1.15,2.89-1.43,3.68-1.51,17.84-1.92,32.04-4.33,47.47-14.15,11.9-7.57,41.61-37.22,44.52-50.71,2.54-11.78-8.26-29.05-13.65-39.26-.81.75-1.12,2.51-1.21,3.58-.81,9.67,0,20.64-.88,30.34-.36,4.05-1.39,10.63-4.7,13.3-.12-2.25.17-4.55,0-6.8-.91-11.79.39-24.07.83-35.97.38-10.05-1.17-19.58,3.27-29.14l2.66-.14c4.13,11.54,13.19,21.73,17.02,33.47,10.54,32.32-10.41,56.21-33.01,76.19-2.96,2.62-7.87,5.58-10.38,8.03-.79.77,11.04,2.92,16.8,2.39Z"/>
          <path class="cls-1" d="M348.6,438.89c2.14-12.1-14.66-9.28-10.8-.81,1.83,4.01,12.9,3.65,16.74,3.15,7.72-1.02,9.89-9.09,16.19-12.62,1.69-.95,3.02-1.65,4.26.34-2.1,10.29-12.38,15.97-19.2,23.12-21.03,22.06-33.21,35.75-63.59,46.05-12.74,4.32-38.39,10.26-50.98,6.14-14.2-4.65-22.11-12.15-23.86-27.36-.22-1.92,1.19-6.67-1.6-6-1.5,7.62-4.16,15.2-8.16,21.86-5.82,9.67-14.75,13.3-25.27,16.35-12.39,3.58-24.98,4.99-37.8,3.41-.02-1.2,2.82-1.14,3.85-1.34,16.73-3.28,47.34-9.4,56.81-24.82,6.36-10.35,6.49-23.07,11.32-33.5.69-1.48,3.57-4.55,4.03-2.26.93,4.66,1.72,9.6,2.42,14.3.85,5.74-.33,9.37,3.33,15.08,6.68,10.43,21.9,12.25,33.12,11.77,25.49-1.09,53.73-12.37,74.25-27.39,1.17-.86,12.96-10.06,11.75-11.05-4.58.33-15.47-.19-16.06-5.98-.65-6.46,5.91-21.17,11.76-24.34,2.74-1.49,7.86-1.81,10.68-.47,4.96,2.36,5,17.27-3.17,16.38Z"/>
          <path class="cls-1" d="M162.93,449.29l24.01-6c9.55-3.11,19.69-6.42,28.26-11.75,1.1-.68,7.91-5.74,8.19-6.24.34-.62.54-1.17.28-1.87-1.04-1.64-2.73-2.63-3.79-4.27-4.62-7.12-7.04-32.74-6.53-41.49.1-1.68.71-6.17,1.16-7.64.65-2.12,2.2-2.89,4.32-2.22,3.98,7.36,12.33,9.29,16.8,16.4,6.7,10.66,2.81,19.26.93,30.67,9.04.58,17.16-1.71,24.27-7.34,2.08-1.65,6.34-5.91,6.82-8.45.84-4.42-4.78-14.88-7.22-18.89-1.07-1.77-5.45-8.28-6.65-9.35-2.49-2.23-1.92,3.89-2.2,5.04-.76,3.16-2.46,6.97-5.41,8.59-.4-2.1.67-4.05.8-6,.7-11.18-3.99-29,.62-38.59.53-1.09,1.58-2.64,2.97-2.63,1.13-.03,1.22,5.96,1.56,7.26,2.63,10.18,14.81,20.87,19,31.42,10.65,26.78-12.03,59.66-41.79,51.38-8.74,10.74-21.99,15.31-35,18.57-3.43.86-12.09,3.43-14.98,3.43h-16.41ZM230.95,413.28c3.94-8.3,2.11-13.33-3.59-20.01l-7.6-4.8c1.47,9.3,1.38,20.21,11.19,24.81Z"/>
          <path class="cls-1" d="M50.91,518.64c-14.59,1.63-35.09,1.83-42.97-13.06-5.69-10.76.65-26.2,6.49-36.24,6.12-10.53,14.54-20.64,23.63-29.61-2.43-2.49-4.18-2.38-6.68-3.88-.33.32-.69.52-.9.71-12.34,10.88-20.2,22.93-25.61,38.44-19.02,54.6,20.98,58.39,62.62,46.61,21.48-6.08,60.91-37.12,61.44-42.99-22,19.62-47.92,36.65-78.02,40.02Z"/>
          <path class="cls-1" d="M256.57,452.5c4.77-.27,10.61-.62,15.19-2.02,12.65-3.87,31.31-23.44,34.07-36.35,2.51-11.72-4.7-18.82-10.07-28.05l-1.59.4-1.15,18.05c-.21,1.01-2.95,8.02-4.44,6.35l.03-18.04c-.84-6.62-1.47-13.16-2.69-19.72-.47-2.55.02-21.36,3.04-20.65,1.86,2.83,2.86,6.11,4.56,9.05,7.77,13.39,18.17,20.74,19.09,37.73,1.33,24.41-26.48,61.96-53.29,54.89-1.11-.29-2.48-.08-2.77-1.63Z"/>
          <path class="cls-1" d="M134.92,386.06c2.26-1.89,3.75-4.5,6.02-6.38,2.87-2.38,15.41-9.03,16.25-11.76.26-.84.2-1.77.11-2.63-5.63-1.08-11.47.37-16.78,2.37,2.09-8.4,9.37-11.21,17.29-11.91,6.45-.57,12.34-1.64,8.9,6.5-2.51,5.94-13.93,15.49-19.55,18.86-3.55,2.13-8.13,4.45-12.25,4.95Z"/>
        </g>
        <path class="cls-2" d="M71.49,379.72c-1.92-5.08-5.03-8.98-10.93-9.54-.66-.07-1.89.36-2.01.79-.77,2.87-1.63,5.8-1.85,8.75-.26,3.36,3.16,5.35,6.11,3.78.83-.44,1.42-1.36,2.17-2.12,5.41,4.29,5.03,10.79,6.22,17.31.76-1.18,1.36-1.8,1.58-2.53.73-2.43,1.34-4.88,1.98-7.33,1.17-4.52,2.11-9.13,3.56-13.55.98-2.98,3.55-3.12,5.55-.61.63.79,1.01,1.75,1.51,2.65.29,0,.58-.02.86-.03.53-2.29,1.22-4.55,1.54-6.88.33-2.35-1.74-5.16-3.85-5.67-2.41-.58-4.32.35-5.35,3.16-1.52,4.17-2.78,8.43-4.07,12.68-.48,1.58-.77,3.24-1.15,4.86-.19,0-.38.03-.57.04-.44-1.92-.66-3.92-1.35-5.75h.04Z"/>
        <path class="cls-2" d="M343.77,377.51c-1.96-5.17-5.11-9.13-11.11-9.7-.67-.07-1.92.37-2.04.8-.79,2.92-1.65,5.9-1.88,8.89-.26,3.41,3.21,5.44,6.21,3.85.85-.45,1.44-1.39,2.2-2.15,5.5,4.36,5.11,10.97,6.32,17.6.77-1.2,1.38-1.83,1.61-2.57.75-2.47,1.36-4.96,2.01-7.46,1.19-4.59,2.15-9.28,3.62-13.78.99-3.03,3.6-3.17,5.64-.62.64.8,1.03,1.78,1.53,2.69.29,0,.59-.02.88-.03.54-2.33,1.24-4.63,1.56-6.99.33-2.39-1.77-5.24-3.91-5.77-2.45-.59-4.39.35-5.44,3.21-1.54,4.24-2.82,8.57-4.14,12.89-.49,1.61-.78,3.29-1.17,4.94-.19,0-.39.03-.58.04-.45-1.95-.67-3.98-1.37-5.85h.04Z"/>
        <path class="cls-2" d="M186.8,460.85c-5.09-1.89-13.39,9.65-16.3,13.08-3.17-.95-5.13-2.13-8.39-.36-5.56,3.02-10.33,9.23-15.2,13.29-.82.68-5.61,6.33-1.87,5.81.91-.13,1.75-.57,2.42-1.19,2.83-2.59,5.74-5.41,9.18-8.4,2.5-2.18,6.25-6.2,9.35-2.98l-.62,2.01c.81.33,1.55-.51,2.01-.56.72-.07,2.64.67,3.78.71,8.38.28,17.45-4.57,20.69-12.57,1.79-4.42-1.08-7.38-5.05-8.86ZM188,471.87c-4.65,2.3-10.49,4.84-15.69,3.31,1.9-2.61,6.55-8.14,10-7.91,1.32.09,6.53,3.36,5.69,4.6Z"/>
        <path class="cls-2" d="M41.72,463.24c-.3.34-6.52,8.16-2.21,10.75,5.94,3.58,13.09-.31,19.15-1.24.37-.06.97-.15.73.43-.14.33-2.31,2.66-2.74,3.01-4.28,3.43-11.48,6.21-16.95,4.88-5.88-1.43-5.5-6.26-4.01-11,2.28-7.28,4.93-7.88,9.02-13.08.24-.3.59-.39.45-.91-2.56.44-6.33-.83-8.63.9-.69.52-1.03,1.62-1.81,2.12-.72.29-.45-.95-.38-1.29.71-3,3.14-6.35,6.22-7.1,1.45-.36,7.84-.36,8.86.36,1.07.76-.31,3.2-.79,4.08-1.69,3.05-4.55,5.51-6.89,8.09Z"/>
        <path class="cls-2" d="M312.55,433.32c-2.33,5.71-6.52,10.76-8.21,16.79-1.21,4.32-1.59,10.37,4.1,11.53,3.88.78,3.6-3.91,5.9-4.32.64-.11.67,0,.6.59-.28,2.29-5.41,9.9-7.44,10.96-4,2.08-7.65-2.99-8.12-6.58-.99-7.68,7.01-22.15,11.79-28.15.37-.47.66-.96,1.37-.82Z"/>
        <path class="cls-2" d="M226.4,455c1.15-3.42,3.25-5.44,5.96-6.92-1-.94-1.93-1.66-2.65-2.55-.33-.41-.57-1.32-.34-1.7,2.35-3.89,5.3-7.08,10.07-7.86.61-.1,1.27-.04,1.9.05,1.42.2,2.13,1.34,1.51,2.66-.42.91-1.09,1.74-1.75,2.52-.83,1-1.23.88-1.89-.25-.21-.37-.66-.79-1.05-.84-1.63-.2-3.22-.06-4.59,1.3,4.15,4.25,9.28,2.65,14.13,2.62.26,2.11-2.33,5-4.83,4.91-5.53-.19-10.08,1.97-14.26,5.31-.48.38-1.22.43-2.22.76Z"/>
        <path class="cls-2" d="M428.57,418.18c-.72.97-1.5,1.89-2.2,2.88-.17.24-1.31,1.82-1.31,2.57,0,.27.15.42.55.37.2-.02.39-.14.55-.25,3.43-2.21,5.52-5.97,7.45-9.44,2.16-3.87,3.81-8.07,5.34-12.21,1.44-3.86,2.61-8.45,1.81-12.52-.5-2.53-1.41-5.02-4.2-5.96-2.31-.77-5.84.56-7.08,3.17-.97,2.05-1.7,4.18-2.4,6.34-.69,2.12-1.29,4.36-1.02,6.62,0-.07.56-.61.64-.71,1.25-1.71,1.62-4.13,3.98-4.78,1.5-.41,3.2.04,4.3,1.12,3.21,3.15,1.47,8.09.05,11.67-1.59,4-3.92,7.7-6.46,11.11h-.01Z"/>
        <path class="cls-2" d="M518.08,386.63c-.11,2.2-.95,4.23-2.98,5.28l-52.18,26.73c-.5-.45.8-6.38,2.23-6.74,16.52-7.38,32.63-16.75,49.15-23.99,1.22-.54,2.39-1.26,3.78-1.28Z"/>
        <path class="cls-1" d="M75.49,403.97c-6.68-3.09-34.36-3.81-42.14-2.99-3.9.41-7.78,1.19-10.07,4.55-8.51,12.52,6.29,17.84,14.82,23.31-1.94,2.91-4.7,5.17-7.82,7.99.19-.01.38-.03.58-.03,3.39,0,5.19,1.52,6.18,3.92,2.78-2.77,5.94-5.59,5.73-7.06,1.27,1.78,4.13,13.68,7.26,13.18.42-2.98-6.03-15.98-4.28-18.19.97-1.23,6.54-4.55,8.27-5.53,6.48-3.68,14.28-7,21.03-10.11l2.23-7.83c-.24-.89-1.13-.92-1.79-1.22ZM42.97,422.99c-8.44-5.58-10.23-6.72-13.6-11.58-.06-1.82,28.36-.35,30.56-.2l-16.95,11.78Z"/>
      </g>
    </g>
  </g>
</svg>